<?xml version="1.0" encoding="utf8"?>
<!DOCTYPE svg PUBLIC "-//W3C//DTD SVG 1.1//EN" "http://www.w3.org/Graphics/SVG/1.1/DTD/svg11.dtd">
<svg enable-background="new 0 0 87.506 100" viewBox="0 0 87.506 100" xml:space="preserve" xmlns="http://www.w3.org/2000/svg">
<path d="m43,26c-1.656,0-3,1.343-3,3v28c0,1.657 1.344,3 3,3s3-1.343 3-3v-28c0-1.657-1.344-3-3-3z"></path>
<path d="m87.506,23.807c0,0-1.414-4.242-4.243-7.07s-7.07-4.243-7.07-4.243l-8.988,8.988c-4.797-3.28-10.289-5.606-16.205-6.724v-12.758c0,0-4-2-8-2s-8,2-8,2v12.758c-19.898,3.762-35,21.266-35,42.242 0,23.71 19.29,43 43,43s43-19.29 43-43c0-8.971-2.765-17.305-7.482-24.205l8.988-8.988zm-44.506,70.193c-20.402,0-37-16.598-37-37s16.598-37 37-37 37,16.598 37,37-16.598,37-37,37z"></path>
</svg>
